<svg width="1627" height="614" viewBox="0 0 1627 614" fill="none" xmlns="http://www.w3.org/2000/svg">
<path d="M378.645 137.191H418.747L394.13 377.009H344.102L337.352 203.895L330.999 377.009H280.971L256.354 137.191H296.059L303.206 353.98C303.735 328.04 304.662 303.423 305.985 280.129C307.573 256.835 309.691 236.454 312.338 218.983C314.985 201.248 318.294 187.219 322.264 176.896C326.499 166.573 331.529 161.411 337.352 161.411C343.175 161.411 348.205 166.573 352.44 176.896C356.675 187.219 360.116 201.248 362.763 218.983C365.41 236.454 367.395 256.835 368.719 280.129C370.307 303.423 371.366 328.04 371.895 353.98L378.645 137.191ZM419.945 247.174C422.062 249.291 424.18 251.409 426.297 253.527C428.68 255.38 430.665 256.571 432.253 257.1C433.312 241.483 436.224 226.395 440.988 211.836C445.753 197.013 452.106 184.043 460.047 172.926C467.988 161.543 477.384 152.544 488.237 145.926C499.09 139.044 511.266 135.603 524.766 135.603C537.736 135.603 548.324 139.441 556.53 147.117C565 154.794 569.235 166.308 569.235 181.661C569.235 197.013 566.588 211.969 561.294 226.527C556 240.821 548.589 253.527 539.06 264.644C529.53 275.761 518.281 284.629 505.31 291.246C492.34 297.864 478.179 301.173 462.826 301.173C457.003 301.173 450.12 300.379 442.179 298.79C434.503 296.937 427.091 294.026 419.945 290.055V247.174ZM464.414 303.555C466.532 313.614 470.105 322.084 475.134 328.966C480.428 335.848 486.517 339.289 493.399 339.289C505.31 339.289 516.163 335.848 525.957 328.966C536.015 322.084 544.883 313.481 552.559 303.158C560.236 292.835 566.721 281.85 572.015 270.203C577.573 258.291 581.941 247.571 585.117 238.042V294.026C583.794 305.937 580.22 317.055 574.397 327.378C568.574 337.701 561.427 346.701 552.956 354.377C544.751 362.054 535.618 368.142 525.56 372.642C515.501 376.877 505.707 378.994 496.178 378.994C489.031 378.994 481.62 377.274 473.943 373.833C466.532 370.392 459.65 365.362 453.297 358.745C447.209 351.863 442.179 343.392 438.209 333.334C434.238 323.275 432.253 311.628 432.253 298.393C438.077 300.511 443.238 301.967 447.738 302.761C452.503 303.29 458.061 303.555 464.414 303.555ZM516.031 174.117C507.825 175.44 500.678 178.749 494.59 184.043C488.767 189.072 483.87 195.557 479.899 203.498C475.929 211.439 472.885 220.439 470.767 230.498C468.649 240.556 467.193 250.88 466.399 261.468C478.311 260.938 488.502 258.424 496.972 253.924C505.443 249.159 512.325 243.468 517.619 236.851C523.178 230.233 527.148 223.219 529.53 215.807C532.177 208.131 533.501 200.851 533.501 193.969C533.501 179.94 527.677 173.323 516.031 174.117ZM694.312 171.734C691.136 179.411 687.562 189.205 683.592 201.116C679.886 213.028 676.18 225.601 672.474 238.836C669.033 251.806 666.122 264.644 663.739 277.35C661.357 290.055 660.166 300.908 660.166 309.908C660.166 316.525 660.96 321.819 662.548 325.79C664.136 329.76 666.783 331.746 670.489 331.746C674.724 331.746 679.886 329.628 685.974 325.393C692.327 321.158 699.077 315.466 706.224 308.32C713.371 301.173 720.65 292.835 728.061 283.305C735.738 273.776 743.149 263.85 750.296 253.527V309.908C750.296 314.937 747.517 321.422 741.958 329.363C736.664 337.304 729.517 344.981 720.518 352.392C711.782 359.804 701.591 366.157 689.945 371.451C678.563 376.745 666.783 379.391 654.607 379.391C649.578 379.391 644.946 378.2 640.71 375.818C636.74 373.171 633.299 369.73 630.387 365.495C627.475 360.995 625.226 355.966 623.637 350.407C622.049 344.583 621.255 338.363 621.255 331.746C621.255 321.687 622.049 310.834 623.637 299.187C625.226 287.276 627.211 275.497 629.593 263.85C632.24 252.203 635.019 241.086 637.931 230.498C640.843 219.645 643.622 210.116 646.269 201.91C648.916 193.705 651.166 187.219 653.019 182.455C654.872 177.425 656.063 175.043 656.592 175.308C651.828 176.896 646.534 180.072 640.71 184.837C634.887 189.337 628.799 195.028 622.446 201.91C616.093 208.528 609.608 216.072 602.991 224.542C596.638 232.748 590.55 241.351 584.726 250.35V195.954C596.373 175.043 612.255 159.558 632.372 149.5C652.754 139.176 674.989 134.015 699.077 134.015H707.018L694.312 171.734ZM915.475 270.6C913.093 284.364 909.519 297.732 904.755 310.702C899.99 323.672 893.77 335.187 886.093 345.245C878.417 355.304 869.285 363.377 858.697 369.465C848.109 375.553 835.8 378.597 821.771 378.597C808.801 378.597 797.684 375.818 788.419 370.259C779.155 364.436 771.478 356.76 765.39 347.23C759.567 337.701 755.199 326.849 752.288 314.672C749.641 302.496 748.317 290.055 748.317 277.35C748.317 262.262 750.038 246.38 753.479 229.704C757.185 213.028 762.876 197.807 770.552 184.043C778.228 170.014 788.022 158.499 799.934 149.5C812.11 140.235 826.668 135.603 843.609 135.603C855.521 135.603 865.844 137.985 874.579 142.75C883.579 147.25 891.123 153.47 897.211 161.411C903.299 169.352 907.931 178.749 911.108 189.602C914.549 200.19 916.666 211.572 917.46 223.748H876.961C874.844 213.425 872.064 204.425 868.623 196.749C865.182 189.072 861.476 182.719 857.506 177.69C853.8 172.661 849.962 168.955 845.991 166.573C842.021 163.926 838.315 162.602 834.874 162.602C828.521 162.602 822.433 165.911 816.61 172.529C810.786 178.881 805.757 187.219 801.522 197.543C797.287 207.601 793.846 218.851 791.199 231.292C788.816 243.468 787.625 255.38 787.625 267.026C787.625 279.732 788.816 291.379 791.199 301.967C793.846 312.29 797.287 321.158 801.522 328.569C805.757 335.981 810.522 341.804 815.816 346.039C821.11 350.01 826.536 351.995 832.095 351.995C837.389 351.995 842.55 350.142 847.58 346.436C852.609 342.731 857.109 337.437 861.079 330.554C865.315 323.672 868.756 315.202 871.403 305.143C874.314 295.085 876.167 283.835 876.961 271.394L915.475 270.6ZM1008.79 135.603C1021.76 135.603 1032.88 138.515 1042.14 144.338C1051.67 149.897 1059.35 157.441 1065.17 166.97C1071.26 176.499 1075.62 187.484 1078.27 199.925C1081.18 212.101 1082.64 224.674 1082.64 237.645C1082.64 252.733 1080.79 268.615 1077.08 285.291C1073.64 301.702 1067.95 316.922 1060.01 330.951C1052.33 344.716 1042.4 356.098 1030.23 365.098C1018.32 374.098 1003.89 378.597 986.95 378.597C973.98 378.597 962.863 375.818 953.598 370.259C944.334 364.436 936.657 356.76 930.569 347.23C924.746 337.701 920.378 326.849 917.467 314.672C914.82 302.496 913.496 290.055 913.496 277.35C913.496 262.262 915.217 246.38 918.658 229.704C922.364 213.028 928.055 197.807 935.731 184.043C943.407 170.014 953.201 158.499 965.113 149.5C977.289 140.235 991.847 135.603 1008.79 135.603ZM1037.77 248.365C1037.77 239.365 1037.11 230.233 1035.79 220.969C1034.73 211.704 1032.74 203.234 1029.83 195.557C1026.92 187.881 1022.82 181.528 1017.52 176.499C1012.49 171.205 1006.01 168.293 998.068 167.764C990.127 169.087 983.509 173.72 978.215 181.661C973.186 189.337 969.083 198.337 965.907 208.66C962.995 218.719 960.877 229.174 959.554 240.027C958.495 250.615 957.966 259.482 957.966 266.629C957.966 275.364 958.627 284.364 959.951 293.629C961.274 302.893 963.392 311.364 966.304 319.04C969.48 326.716 973.583 333.201 978.612 338.495C983.642 343.525 989.994 346.304 997.671 346.833C1005.35 345.245 1011.7 340.613 1016.73 332.937C1022.02 324.996 1026.13 315.996 1029.04 305.937C1032.21 295.614 1034.46 285.291 1035.79 274.967C1037.11 264.379 1037.77 255.512 1037.77 248.365ZM1213.27 377.406V178.087L1200.17 377.406H1154.51L1133.47 175.308C1134.26 193.307 1134.92 208.263 1135.45 220.175C1136.25 232.086 1136.78 242.542 1137.04 251.541C1137.57 260.541 1137.97 268.615 1138.23 275.761C1138.5 282.908 1138.63 290.717 1138.63 299.187C1138.63 307.923 1138.1 317.055 1137.04 326.584C1136.25 335.848 1134.79 344.319 1132.67 351.995C1130.56 359.671 1127.78 366.024 1124.34 371.053C1121.16 376.083 1117.06 378.597 1112.03 378.597C1107.53 378.597 1103.29 377.142 1099.32 374.23C1095.62 371.053 1092.31 367.215 1089.4 362.715C1086.75 358.216 1084.63 353.451 1083.04 348.422C1081.45 343.128 1080.66 338.495 1080.66 334.525V240.027C1082.25 251.674 1084.23 263.453 1086.62 275.364C1089 287.276 1091.38 298.129 1093.76 307.923C1096.15 317.716 1098.53 325.79 1100.91 332.143C1103.29 338.231 1105.41 341.275 1107.26 341.275C1109.38 341.275 1110.7 337.701 1111.23 330.554C1111.76 323.143 1112.03 313.481 1112.03 301.57C1112.03 292.305 1111.63 282.114 1110.84 270.997C1110.04 259.615 1108.98 248.233 1107.66 236.851C1106.6 225.204 1105.28 213.822 1103.69 202.704C1102.37 191.587 1100.91 181.528 1099.32 172.529C1097.73 163.529 1096.15 155.852 1094.56 149.5C1092.97 143.147 1091.65 139.044 1090.59 137.191H1158.48L1175.16 307.923C1176.22 280.394 1177.14 251.938 1177.94 222.557C1179 192.91 1179.92 164.455 1180.72 137.191H1245.83V377.406H1213.27ZM1245.84 247.174C1247.96 249.291 1250.07 251.409 1252.19 253.527C1254.57 255.38 1256.56 256.571 1258.15 257.1C1259.21 241.483 1262.12 226.395 1266.88 211.836C1271.65 197.013 1278 184.043 1285.94 172.926C1293.88 161.543 1303.28 152.544 1314.13 145.926C1324.98 139.044 1337.16 135.603 1350.66 135.603C1363.63 135.603 1374.22 139.441 1382.42 147.117C1390.89 154.794 1395.13 166.308 1395.13 181.661C1395.13 197.013 1392.48 211.969 1387.19 226.527C1381.89 240.821 1374.48 253.527 1364.95 264.644C1355.42 275.761 1344.18 284.629 1331.2 291.246C1318.23 297.864 1304.07 301.173 1288.72 301.173C1282.9 301.173 1276.02 300.379 1268.07 298.79C1260.4 296.937 1252.99 294.026 1245.84 290.055V247.174ZM1290.31 303.555C1292.43 313.614 1296 322.084 1301.03 328.966C1306.32 335.848 1312.41 339.289 1319.29 339.289C1331.2 339.289 1342.06 335.848 1351.85 328.966C1361.91 322.084 1370.78 313.481 1378.45 303.158C1386.13 292.835 1392.62 281.85 1397.91 270.203C1403.47 258.291 1407.84 247.571 1411.01 238.042V294.026C1409.69 305.937 1406.12 317.055 1400.29 327.378C1394.47 337.701 1387.32 346.701 1378.85 354.377C1370.65 362.054 1361.51 368.142 1351.45 372.642C1341.4 376.877 1331.6 378.994 1322.07 378.994C1314.93 378.994 1307.51 377.274 1299.84 373.833C1292.43 370.392 1285.54 365.362 1279.19 358.745C1273.1 351.863 1268.07 343.392 1264.1 333.334C1260.13 323.275 1258.15 311.628 1258.15 298.393C1263.97 300.511 1269.13 301.967 1273.63 302.761C1278.4 303.29 1283.96 303.555 1290.31 303.555ZM1341.93 174.117C1333.72 175.44 1326.57 178.749 1320.48 184.043C1314.66 189.072 1309.76 195.557 1305.79 203.498C1301.82 211.439 1298.78 220.439 1296.66 230.498C1294.54 240.556 1293.09 250.88 1292.29 261.468C1304.21 260.938 1314.4 258.424 1322.87 253.924C1331.34 249.159 1338.22 243.468 1343.51 236.851C1349.07 230.233 1353.04 223.219 1355.42 215.807C1358.07 208.131 1359.4 200.851 1359.4 193.969C1359.4 179.94 1353.57 173.323 1341.93 174.117Z" fill="#191A1C"/>
<line x1="1330.4" y1="283.946" x2="1580.96" y2="401.632" stroke="#FE912B" stroke-width="31.5711"/>
<line x1="1515.75" y1="221.884" x2="1400.24" y2="473.45" stroke="#FE912B" stroke-width="31.5711"/>
<line x1="1424.8" y1="202.875" x2="1493.99" y2="470.907" stroke="#FE912B" stroke-width="31.5711"/>
<line x1="1586.55" y1="312.903" x2="1319.6" y2="386.153" stroke="#FE912B" stroke-width="31.5711"/>
<path d="M269.022 9.47937L278.503 72.9312L339.436 52.4146L295.606 99.3407L349.709 134.067L285.573 129.131L292.105 192.95L255.958 139.869L210 184.724L229.063 123.469L165.222 115.583L225.139 92.2806L191.489 37.5921L247.142 69.7892L269.022 9.47937Z" fill="#9E9CE6"/>
<ellipse cx="114.907" cy="391.479" rx="25.8615" ry="74.8622" transform="rotate(-16.2201 114.907 391.479)" fill="#181818"/>
<ellipse cx="192.431" cy="368.932" rx="25.8615" ry="74.8622" transform="rotate(-16.2201 192.431 368.932)" fill="#181818"/>
<ellipse cx="198.799" cy="366.201" rx="10.4353" ry="21.3244" transform="rotate(-6.07926 198.799 366.201)" fill="#F7F7F7"/>
<ellipse cx="124.01" cy="385.381" rx="10.4353" ry="21.3244" transform="rotate(-6.07926 124.01 385.381)" fill="#F7F7F7"/>
<path d="M124.808 499.19C167.559 595.366 264.661 557.99 250.537 472.37" stroke="black" stroke-width="3.62968"/>
</svg>
